<?xml version="1.0" encoding="utf-8"?>
<!-- Generator: Adobe Illustrator 27.0.0, SVG Export Plug-In . SVG Version: 6.00 Build 0)  -->
<svg version="1.1" id="Layer_1" xmlns="http://www.w3.org/2000/svg" xmlns:xlink="http://www.w3.org/1999/xlink" x="0px" y="0px"
	 viewBox="0 0 1080 1080" style="enable-background:new 0 0 1080 1080;" xml:space="preserve">
<style type="text/css">
	.st0{fill-rule:evenodd;clip-rule:evenodd;}
</style>
<g>
	<path d="M543.42,785.64c-6.05-7.2-17.58-16.08-41.39-9.12c-33.04,9.66-35.53,39.93-59.7,53.11c-24.18,13.19-39.93-4.39-33.7-26
		c0,0,4.76,12.09,19.04,6.22c14.29-5.86,7.33-21.24,2.93-24.9c-4.4-3.66-23.08-6.23-32.6,15.02c-9.52,21.24,0.36,56.41,41.39,58.61
		c38.37,2.05,84.98-10.62,104.02-40.66c19.05,30.03,65.66,42.71,104.03,40.66c41.02-2.2,50.91-37.36,41.39-58.61
		c-9.52-21.25-28.2-18.68-32.6-15.02c-4.39,3.66-11.35,19.05,2.93,24.9c14.28,5.86,19.04-6.22,19.04-6.22
		c6.23,21.61-9.52,39.19-33.7,26c-24.17-13.18-26.66-43.45-59.7-53.11C561,769.56,549.47,778.44,543.42,785.64L543.42,785.64z"/>
	<g>
		<path d="M188.63,703.2c4.55,0,8.46-1.63,11.72-4.88c3.25-3.25,4.88-7.16,4.88-11.72c0-4.55-1.63-8.43-4.88-11.62
			c-3.26-3.19-7.16-4.78-11.72-4.78h-11.91l-41.98,18.16v14.84H188.63L188.63,703.2z M182.97,631.15c3.25-1.43,5.86-3.58,7.81-6.44
			c1.95-2.86,2.93-6.05,2.93-9.57c0-4.69-1.69-8.72-5.08-12.1c-3.38-3.39-7.49-5.08-12.3-5.08h-41.59v54.09L182.97,631.15
			L182.97,631.15z M101.35,564.76h74.98c9.11,0,17.54,2.28,25.29,6.83c7.74,4.56,13.89,10.68,18.45,18.36
			c4.56,7.68,6.83,16.08,6.83,25.19c0,11.33-3.39,21.48-10.15,30.46c6.64,4.56,11.91,10.45,15.82,17.67
			c3.91,7.22,5.86,15.01,5.86,23.33c0,8.98-2.25,17.28-6.74,24.9c-4.49,7.62-10.54,13.67-18.16,18.16
			c-7.62,4.49-15.91,6.74-24.9,6.74h-87.28V564.76L101.35,564.76z"/>
		<path d="M344.65,671.57l-24.8-69.51l-24.8,69.51H344.65L344.65,671.57z M297.79,564.37h43.93l61.31,172.03h-35.34l-11.13-31.44
			h-73.42l-11.33,31.44h-35.34L297.79,564.37L297.79,564.37z"/>
		<path d="M489.35,654.19c5.32-2.21,9.62-5.69,12.88-10.45c3.26-4.75,4.88-10.06,4.88-15.91v-1.37c0-5.08-1.29-9.79-3.89-14.16
			c-2.6-4.36-6.1-7.84-10.46-10.45c-4.36-2.6-9.08-3.91-14.14-3.91h-30.47v73.03L489.35,654.19L489.35,654.19z M414.75,564.76h63.86
			c11.19,0,21.51,2.77,30.94,8.3c9.45,5.54,16.93,13.02,22.47,22.46c5.54,9.44,8.3,19.76,8.3,30.95v1.37
			c0,11.46-2.93,22.06-8.8,31.83c-5.86,9.76-13.79,17.31-23.83,22.65l36.12,54.09h-40.22l-27.14-41.01l-28.31,11.52v29.48h-33.39
			V564.76L414.75,564.76z"/>
		<path d="M642.81,703.2c4.57,0,8.47-1.63,11.73-4.88c3.26-3.25,4.88-7.16,4.88-11.72c0-4.55-1.62-8.43-4.88-11.62
			c-3.26-3.19-7.15-4.78-11.73-4.78H630.9l-41.96,18.16v14.84H642.81L642.81,703.2z M637.16,631.15c3.26-1.43,5.86-3.58,7.81-6.44
			c1.95-2.86,2.93-6.05,2.93-9.57c0-4.69-1.69-8.72-5.09-12.1c-3.38-3.39-7.48-5.08-12.29-5.08h-41.58v54.09L637.16,631.15
			L637.16,631.15z M555.54,564.76h74.98c9.1,0,17.54,2.28,25.28,6.83c7.74,4.56,13.89,10.68,18.46,18.36
			c4.55,7.68,6.83,16.08,6.83,25.19c0,11.33-3.38,21.48-10.16,30.46c6.64,4.56,11.91,10.45,15.81,17.67
			c3.92,7.22,5.86,15.01,5.86,23.33c0,8.98-2.23,17.28-6.73,24.9c-4.48,7.62-10.53,13.67-18.15,18.16s-15.93,6.74-24.91,6.74h-87.27
			V564.76L555.54,564.76z"/>
		<polygon points="708.23,564.76 840.23,564.76 840.23,597.95 741.63,597.95 741.63,633.88 822.26,633.88 822.26,667.27 
			741.63,667.27 741.63,703.2 840.23,703.2 840.23,736.4 708.23,736.4 708.23,564.76 		"/>
		<path d="M932.4,654.19c5.32-2.21,9.62-5.69,12.88-10.45c3.26-4.75,4.9-10.06,4.9-15.91v-1.37c0-5.08-1.31-9.79-3.92-14.16
			c-2.6-4.36-6.1-7.84-10.44-10.45c-4.39-2.6-9.08-3.91-14.17-3.91h-30.47v73.03L932.4,654.19L932.4,654.19z M857.82,564.76h63.84
			c11.19,0,21.51,2.77,30.96,8.3c9.43,5.54,16.91,13.02,22.45,22.46c5.54,9.44,8.3,19.76,8.3,30.95v1.37
			c0,11.46-2.93,22.06-8.8,31.83c-5.86,9.76-13.79,17.31-23.81,22.65l36.12,54.09h-40.22l-27.16-41.01l-28.31,11.52v29.48h-33.38
			V564.76L857.82,564.76z"/>
	</g>
	<path d="M714.79,414.55c-12.28-37.5-68.69-11.52-68.69-11.52c0-48.01,14.9-140.1,21.25-177.16c1.52-8.87-4.14-19.02-13.06-21.8
		c-47.77-14.84-173.98-14.84-221.75,0c-8.92,2.78-14.6,12.93-13.08,21.8c6.36,37.07,21.27,129.15,21.27,177.16
		c0,0-56.42-25.99-68.7,11.52c-13.55,41.42,49.58,124.74,171.38,124.74C665.22,539.29,728.34,455.97,714.79,414.55z M540.01,237.77
		c35.47,0.15,68.2-6.36,102.56-13.54c-54.73,39.15-144.28,41.87-198.29,0C476.43,232.13,506.54,237.64,540.01,237.77z
		 M527.23,349.56h-7.81l-9.64-16.09v32.65h-10.12v-52.47h10.12l13.55,22.62l13.56-22.62h10.1v52.47h-10.1v-32.65L527.23,349.56z
		 M620.61,412.78c-43.15,37.11-111.97,39.73-154.38,0C519.74,435.5,566.78,433.1,620.61,412.78z M569.51,320.8h8.88l-2.99,10.33
		h-8.96c-1.14,0-2.06,0.85-2.06,2.02v32.96h-10.12V320.8h10.12v5.12L569.51,320.8z M582.99,366.11v-10.27h10.1v10.27H582.99z
		 M435.77,492.57c72.62,23,142.31,20.4,215.29,0C587.25,530.34,499,533.1,435.77,492.57z"/>
	<rect x="717.35" y="787.82" class="st0" width="269.67" height="23.33"/>
	<rect x="717.35" y="489.93" class="st0" width="269.67" height="23.33"/>
	<rect x="99.25" y="787.82" class="st0" width="269.67" height="23.33"/>
	<rect x="99.25" y="489.93" class="st0" width="269.67" height="23.33"/>
</g>
</svg>
