<?xml version="1.0" encoding="utf-8"?>
<!-- Generator: Adobe Illustrator 27.0.0, SVG Export Plug-In . SVG Version: 6.00 Build 0)  -->
<svg version="1.1" id="Layer_1" xmlns="http://www.w3.org/2000/svg" xmlns:xlink="http://www.w3.org/1999/xlink" x="0px" y="0px"
	 viewBox="0 0 32 32" style="enable-background:new 0 0 32 32;" xml:space="preserve">
<style type="text/css">
	.st0{fill:#FFFFFF;}
</style>
<path class="st0" d="M26,0H6C2.7,0,0,2.7,0,6v20c0,3.3,2.7,6,6,6h20c3.3,0,6-2.7,6-6V6C32,2.7,29.3,0,26,0z M24.6,14.2
	c-1.8,0-3.4-0.6-5-1.7c0,0.2,0,0.3,0,0.4c0,2.3,0,4.6,0,6.9c0,2.8-1.9,5.1-4.6,5.8c-3.5,0.9-6.9-1.3-7.6-4.8c-0.6-3.2,1.7-6.6,5-7.1
	c0.6-0.1,1.2-0.1,1.8-0.1c0.1,0,0.2,0.1,0.2,0.2c0,1,0,2,0,3c-0.6,0-1.2,0-1.7,0.1c-1.4,0.3-2.3,1.8-2.1,3.2
	c0.2,1.5,1.4,2.5,2.9,2.6c1.5,0,2.7-1.1,2.9-2.5c0-0.2,0-0.4,0-0.7c0-4.3,0-8.6,0-12.9c0-0.1,0-0.3,0-0.4c1.1,0,2.1,0,3.2,0
	c0.1,1.3,0.5,2.5,1.5,3.5c1,0.9,2.1,1.4,3.5,1.5C24.6,12.1,24.6,13.2,24.6,14.2z"/>
</svg>
