<svg id="b3a8f675-01fc-4b6e-9b4d-7b17d42c7383" data-name="Слой 1" xmlns="http://www.w3.org/2000/svg" viewBox="0 0 840.6 796.51"><defs><style>.ac80702b-e07f-4aa6-8b06-a579a3991300{fill:#b28d5d;}</style></defs><path class="ac80702b-e07f-4aa6-8b06-a579a3991300" d="M566.41,531.79a15.72,15.72,0,0,1,8.37,14.55,17.09,17.09,0,0,1-5.73,13.28,20.23,20.23,0,0,1-14.1,5.19h-27V501.13H553a19.84,19.84,0,0,1,13.78,5.05,16.58,16.58,0,0,1,5.6,12.87A15.55,15.55,0,0,1,566.41,531.79ZM553,512.87H540.49v14H553a6.56,6.56,0,0,0,4.87-2,7.45,7.45,0,0,0,0-10A6.5,6.5,0,0,0,553,512.87Zm1.91,40.2a7.11,7.11,0,0,0,5.28-2.13,7.45,7.45,0,0,0,2.09-5.42,7.33,7.33,0,0,0-2.09-5.32,7.11,7.11,0,0,0-5.28-2.13H540.49v15Z" transform="translate(-377.89 -163.48)"/><path class="ac80702b-e07f-4aa6-8b06-a579a3991300" d="M606.26,566.08q-10.65,0-17.47-6T582,544V501.13h12.46V543a10.75,10.75,0,0,0,2.87,7.91c1.91,1.94,4.89,2.91,9,2.91s7-1,9-2.91a10.75,10.75,0,0,0,2.87-7.91V501.13h12.55V544q0,10.1-6.82,16.1T606.26,566.08Z" transform="translate(-377.89 -163.48)"/><path class="ac80702b-e07f-4aa6-8b06-a579a3991300" d="M663.65,566.08q-9.45,0-15.91-4.23a22.61,22.61,0,0,1-9.1-11.5l10.73-6.28q3.74,9.73,14.65,9.73,5.26,0,7.73-1.91a6,6,0,0,0-.54-10q-3-1.86-10.74-4.05a69,69,0,0,1-7.23-2.54,31,31,0,0,1-5.91-3.42,13.82,13.82,0,0,1-4.51-5.41,17.72,17.72,0,0,1-1.54-7.64q0-8.64,6.14-13.78a22.25,22.25,0,0,1,14.78-5.14,24.64,24.64,0,0,1,13.6,3.77,25.37,25.37,0,0,1,9.14,10.51l-10.55,6.1q-3.82-8.19-12.19-8.19a9.61,9.61,0,0,0-6.14,1.77,5.6,5.6,0,0,0-2.23,4.6,5.78,5.78,0,0,0,2.5,4.86q2.5,1.88,9.6,4.05,2.91.92,4.41,1.41c1,.33,2.37.85,4.09,1.55a26,26,0,0,1,4,2,34.44,34.44,0,0,1,3.23,2.46,12.68,12.68,0,0,1,2.77,3.18,18.18,18.18,0,0,1,2.32,9,17.09,17.09,0,0,1-6.41,14Q673.93,566.08,663.65,566.08Z" transform="translate(-377.89 -163.48)"/><path class="ac80702b-e07f-4aa6-8b06-a579a3991300" d="M694.49,501.13h12.56v63.68H694.49Z" transform="translate(-377.89 -163.48)"/><path class="ac80702b-e07f-4aa6-8b06-a579a3991300" d="M755.71,501.13h12.56v63.68h-9.56l-27.29-38.93v38.93H718.87V501.13h9.55L755.71,540Z" transform="translate(-377.89 -163.48)"/><path class="ac80702b-e07f-4aa6-8b06-a579a3991300" d="M792.64,552.8h26.84v12H780.09V501.13H819v12H792.64v13.55h24.11v11.83H792.64Z" transform="translate(-377.89 -163.48)"/><path class="ac80702b-e07f-4aa6-8b06-a579a3991300" d="M850,566.08q-9.45,0-15.92-4.23a22.64,22.64,0,0,1-9.09-11.5l10.73-6.28q3.74,9.73,14.65,9.73,5.26,0,7.73-1.91a6,6,0,0,0-.55-10q-3-1.86-10.73-4.05a69,69,0,0,1-7.23-2.54,30.72,30.72,0,0,1-5.91-3.42,13.82,13.82,0,0,1-4.51-5.41,17.72,17.72,0,0,1-1.55-7.64q0-8.64,6.14-13.78a22.27,22.27,0,0,1,14.79-5.14,24.66,24.66,0,0,1,13.6,3.77,25.37,25.37,0,0,1,9.14,10.51l-10.55,6.1q-3.82-8.19-12.19-8.19a9.61,9.61,0,0,0-6.14,1.77,5.6,5.6,0,0,0-2.23,4.6,5.78,5.78,0,0,0,2.5,4.86q2.5,1.88,9.6,4.05,2.91.92,4.41,1.41c1,.33,2.36.85,4.09,1.55a25.39,25.39,0,0,1,4,2,32,32,0,0,1,3.23,2.46,12.53,12.53,0,0,1,2.78,3.18,18.38,18.38,0,0,1,1.64,4,18,18,0,0,1,.68,5q0,8.82-6.42,14T850,566.08Z" transform="translate(-377.89 -163.48)"/><path class="ac80702b-e07f-4aa6-8b06-a579a3991300" d="M901.16,566.08q-9.45,0-15.92-4.23a22.64,22.64,0,0,1-9.09-11.5l10.73-6.28q3.74,9.73,14.65,9.73,5.26,0,7.73-1.91a6,6,0,0,0-.55-10q-3-1.86-10.73-4.05a69,69,0,0,1-7.23-2.54,31,31,0,0,1-5.91-3.42,13.82,13.82,0,0,1-4.51-5.41,17.72,17.72,0,0,1-1.54-7.64q0-8.64,6.14-13.78a22.25,22.25,0,0,1,14.78-5.14,24.64,24.64,0,0,1,13.6,3.77,25.37,25.37,0,0,1,9.14,10.51l-10.55,6.1q-3.82-8.19-12.19-8.19a9.61,9.61,0,0,0-6.14,1.77,5.6,5.6,0,0,0-2.23,4.6,5.78,5.78,0,0,0,2.5,4.86q2.5,1.88,9.6,4.05,2.91.92,4.41,1.41c1,.33,2.36.85,4.09,1.55a26,26,0,0,1,4,2,33.19,33.19,0,0,1,3.22,2.46,12.53,12.53,0,0,1,2.78,3.18,18.18,18.18,0,0,1,2.32,9,17.09,17.09,0,0,1-6.41,14Q911.44,566.08,901.16,566.08Z" transform="translate(-377.89 -163.48)"/><path class="ac80702b-e07f-4aa6-8b06-a579a3991300" d="M1008.78,556.48a33.49,33.49,0,1,1,9.64-23.51A32,32,0,0,1,1008.78,556.48Zm-38.12-8.55a21.2,21.2,0,0,0,29.29,0,22,22,0,0,0,0-30,21.1,21.1,0,0,0-29.29,0,22,22,0,0,0,0,30Z" transform="translate(-377.89 -163.48)"/><path class="ac80702b-e07f-4aa6-8b06-a579a3991300" d="M1065.26,513.14h-25.47v15.1h24.75v12h-24.75v24.56h-12.55V501.13h38Z" transform="translate(-377.89 -163.48)"/><path class="ac80702b-e07f-4aa6-8b06-a579a3991300" d="M641.87,592.1v12H624.68v51.66H612.12V604.11H595v-12Z" transform="translate(-377.89 -163.48)"/><path class="ac80702b-e07f-4aa6-8b06-a579a3991300" d="M685.08,592.1h12.46v63.67H685.08V629.39H661.43v26.38H648.87V592.1h12.56v25.29h23.65Z" transform="translate(-377.89 -163.48)"/><path class="ac80702b-e07f-4aa6-8b06-a579a3991300" d="M721.92,643.77h26.83v12H709.36V592.1H748.3v12H721.92v13.55H746v11.82h-24.1Z" transform="translate(-377.89 -163.48)"/><path class="ac80702b-e07f-4aa6-8b06-a579a3991300" d="M830.71,592.1l-21.83,38.84v24.83H796.42V630.94L774.68,592.1h14.19l13.82,26.56,13.83-26.56Z" transform="translate(-377.89 -163.48)"/><path class="ac80702b-e07f-4aa6-8b06-a579a3991300" d="M849.36,643.77h26.83v12H836.81V592.1h38.93v12H849.36v13.55h24.11v11.82H849.36Z" transform="translate(-377.89 -163.48)"/><path class="ac80702b-e07f-4aa6-8b06-a579a3991300" d="M927,655.77l-3.82-11.46H897.75l-3.82,11.46H880.38l22.28-63.67h15.56l22.38,63.67Zm-25.19-23.19h17.46l-8.73-26Z" transform="translate(-377.89 -163.48)"/><path class="ac80702b-e07f-4aa6-8b06-a579a3991300" d="M981.71,655.77l-12.82-22.1h-9.55v22.1H946.78V592.1h25.47a21.12,21.12,0,0,1,21.2,21.1,19.39,19.39,0,0,1-3.37,11,21,21,0,0,1-8.91,7.6l14.1,24Zm-22.37-51.94v18.83h12.91a8,8,0,0,0,6.1-2.77,9.57,9.57,0,0,0,2.54-6.69,9.42,9.42,0,0,0-2.54-6.64,8.06,8.06,0,0,0-6.1-2.73Z" transform="translate(-377.89 -163.48)"/><path class="ac80702b-e07f-4aa6-8b06-a579a3991300" d="M453.45,519.9c3.13,1.9-1.79,15.55-10.85,30.54s-19,25.63-22.15,23.72c-2.8,2.35-14.32-6.37-26-19.57s-18.8-25.74-16-28.2,14.32,6.38,26,19.58c7.61,8.73,13.31,17.23,15.55,22.6,1.23-5.71,5.37-15,11.3-25C440.47,528.63,450.32,518,453.45,519.9ZM432.53,511c-6.82,9.29-11.75,18.13-13.54,23.72-1.79-5.59-6.71-14.43-13.54-23.72-10.4-14.1-21.14-23.83-24.16-21.7s3.13,15.32,13.54,29.42,21.25,23.94,24.16,21.82c2.91,2.12,13.65-7.61,24.06-21.82s16.44-27.3,13.53-29.42S442.82,496.85,432.53,511Zm4-32.44c-7.72,8.72-13.43,17.23-15.55,22.71-1.23-5.71-5.49-15.11-11.42-25.06-9.17-15-19-25.62-22.15-23.72S389.23,468,398.29,483s19.14,25.62,22.16,23.72c2.79,2.46,14.32-6.27,25.95-19.47s18.8-25.84,16-28.19S448.08,465.3,436.56,478.51Zm-2.8-43.75c-.34-5.93-2.8-15.66-6.94-26.4-6.37-16.34-14.32-28.53-17.67-27.19s-1,15.66,5.37,32,14.32,28.53,17.67,27.18c2.35,2.8,15.22-3.8,29-14.76s22.94-22.16,20.7-24.95-15.22,3.69-29,14.65C443.94,422.45,436.89,429.73,433.76,434.76Zm-7.83,32.67c-.78-5.93-4.14-15.44-9.18-25.51-7.83-15.77-16.78-27.19-20-25.62s.45,15.66,8.17,31.44,16.78,27.18,20,25.51c2.46,2.68,14.77-5,27.53-17.12s20.92-24.05,18.46-26.74-14.88,5-27.53,17.23C435.1,454.45,428.73,462.17,425.93,467.43Zm18.35-64.56c.33-5.81-1.23-15.88-4.48-27.07-4.92-16.78-11.75-29.65-15.21-28.64s-2.35,15.55,2.57,32.33,11.75,29.65,15.22,28.64c2,3.13,15.55-2.35,30.09-12.08s24.84-20.14,22.83-23.16-15.56,2.46-30.1,12.19C455.47,391.57,447.86,398.18,444.28,402.87ZM536.58,263c2.69-5.26,5.48-15,7.16-26.4,2.69-17.34,1.9-31.89-1.68-32.45s-8.61,13.09-11.3,30.43-1.9,31.89,1.68,32.45c.56,3.58,15.1,4.36,32.45,1.68s31-7.72,30.43-11.3-15.11-4.37-32.45-1.68C551.57,257.54,541.84,260.22,536.58,263Zm-23.16,24.39c2.24-5.37,4-15.33,4.81-26.85,1.12-17.45-.89-31.89-4.47-32.11s-7.5,13.76-8.62,31.33.9,31.88,4.48,32.11c.89,3.58,15.44,3,32.44-1.12s30.21-10.41,29.32-13.88-15.33-3-32.45,1.12C527.74,280.7,518.34,284.28,513.42,287.41ZM473.93,342c1.23-5.71,1.34-15.78.11-27.19-2-17.45-6.49-31.32-10.07-30.88s-5,14.88-3,32.34,6.38,31.21,10,30.76c1.45,3.36,15.66.34,31.77-6.71s28-15.44,26.4-18.79-15.66-.34-31.66,6.71C487,332.84,478.29,338,473.93,342Zm87.82-101.48c3.14-4.92,6.83-14.43,9.51-25.62,4.14-17,4.7-31.55,1.12-32.44s-9.73,12.3-13.87,29.31-4.7,31.66-1.12,32.45c.22,3.69,14.54,5.7,32.11,4.58s31.55-5,31.21-8.61c-.11-3.69-14.54-5.71-32.11-4.59C577.19,236.39,567.24,238.3,561.75,240.53Zm26.3-49c-5.6,16.56-7.39,31-3.92,32.22,0,3.58,14.21,6.83,31.66,7.27s31.78-2.24,31.89-5.81-14.21-6.94-31.55-7.28c-11.64-.33-21.82.79-27.41,2.58,3.58-4.59,8-13.77,11.86-24.73,5.59-16.67,7.38-31.1,3.91-32.22S593.75,174.86,588.05,191.53Zm-95.66,122.4c1.79-5.6,2.79-15.67,2.57-27.19-.45-17.45-3.69-31.66-7.27-31.66s-6.27,14.43-5.93,32c.45,17.34,3.69,31.55,7.38,31.55,1.12,3.47,15.55,1.67,32.11-3.92s29.2-13,28-16.45-15.55-1.67-32.11,3.92C506.15,306,497,310.35,492.39,313.93Zm-34.57,57.73c.78-5.82,0-15.89-2.24-27.08-3.47-17.23-9.18-30.65-12.76-29.87s-3.58,15.22-.11,32.45,9.06,30.54,12.64,29.87c1.79,3.13,15.67-1.12,31-9.51s26.51-17.79,24.72-21-15.66,1.12-31,9.52C470,361.48,461.84,367.3,457.82,371.66Zm151.25-166.2c1.91,3.13,15.56-1.56,30.77-10.4s26-18.58,24.06-21.71-15.55,1.46-30.77,10.41S607.28,202.33,609.07,205.46ZM500.67,757.87c.78,11.42,2.57,21.26,4.81,26.74-5-3.13-14.44-6.71-25.51-9.39-17-4.14-31.55-4.7-32.45-1.12s12.31,9.73,29.32,13.87,31.55,4.7,32.44,1.12c3.58-.22,5.6-14.55,4.48-32.11s-4.93-31.55-8.62-31.21S499.55,740.31,500.67,757.87ZM433,576.18c-5,10.18-8.39,19.69-9.18,25.51-2.91-5.26-9.28-13-17.45-20.81-12.64-12.09-25-19.81-27.52-17.12s5.7,14.54,18.46,26.63,24.95,19.8,27.52,17.23c3.24,1.56,12.2-9.85,20-25.62s11.41-29.76,8.16-31.33S440.81,560.52,433,576.18ZM593.3,849.06c4.59,10.52,9.85,19.24,13.77,23.6-5.82-1.23-16-1.45-27.3-.11-17.35,1.91-31.22,6.38-30.88,10s14.88,5,32.33,3,31.33-6.38,30.88-10c3.36-1.45.34-15.66-6.71-31.77s-15.44-27.86-18.8-26.4S586.26,833.06,593.3,849.06Zm-26.06-19.69c3.69,11,8,20,11.74,24.72-5.59-1.79-15.77-2.79-27.18-2.57-17.46.45-31.67,3.69-31.67,7.38s14.32,6.27,31.89,5.82,31.66-3.69,31.66-7.27c3.47-1.23,1.68-15.66-3.91-32.22s-13-29.2-16.45-28S561.64,812.81,567.24,829.37ZM454.91,671.5c-2.24,11.3-3,21.37-2.24,27.19-3.92-4.25-12.2-10.29-22.27-15.78-15.44-8.39-29.31-12.64-31.1-9.51s9.4,12.65,24.73,21,29.31,12.64,31.1,9.51c3.58.67,9.17-12.65,12.64-29.88s3.36-31.77-.22-32.44S458.26,654.27,454.91,671.5Zm88.05,136c2.79,11.08,6.37,20.47,9.51,25.51-5.37-2.24-15.33-4-26.85-4.81-17.46-1.12-31.89.89-32.11,4.47s13.76,7.5,31.32,8.62,31.89-.9,32.11-4.48c3.47-.89,3-15.44-1.12-32.44s-10.4-30.21-14-29.32S538.82,790.43,543,807.55ZM444.84,640.4c-3.25,11.07-4.93,21.14-4.7,27-3.58-4.7-11.19-11.3-20.7-17.67-14.66-9.74-28.08-15.22-30.1-12.2s8.17,13.31,22.72,23,28.08,15.21,30.09,12.19c3.58,1,10.41-11.74,15.33-28.64s6-31.33,2.57-32.33S449.76,623.62,444.84,640.4Zm22.71,61.2c-1.23,11.3-1.12,21.37.11,27.18-4.36-3.91-13.09-9.06-23.49-13.64-16-7-30.21-10.19-31.67-6.83s10.3,11.75,26.41,18.8,30.32,10.07,31.77,6.71c3.58.45,8.06-13.31,10-30.77s.56-31.88-3-32.33S469.56,684.14,467.55,701.6Zm15.33,28.86c-.23,11.53.78,21.6,2.57,27.19-4.59-3.58-13.76-7.94-24.73-11.75-16.55-5.59-31-7.38-32.22-3.91s11.41,10.74,28.08,16.44,31,7.39,32.11,3.92c3.7,0,6.94-14.21,7.39-31.66s-2.24-31.78-5.82-31.89S483.32,713,482.88,730.46Zm-45.43-122c-4.14,10.86-6.6,20.59-6.93,26.41-3.14-4.93-10.18-12.2-19.14-19.36-13.65-11-26.62-17.57-28.86-14.77s6.94,14.1,20.59,25.06,26.73,17.57,29,14.66c3.36,1.34,11.3-10.85,17.68-27.19s8.84-30.65,5.37-32S443.83,592.18,437.45,608.51Zm83.35,175.1c1.68,11.41,4.48,21.14,7.17,26.4-5.15-2.68-14.89-5.48-26.3-7.27-17.34-2.69-31.88-1.9-32.44,1.68s13.09,8.61,30.43,11.3,31.89,1.9,32.33-1.68c3.7-.56,4.37-15.1,1.79-32.45s-7.72-30.88-11.3-30.43S518.12,766.27,520.8,783.61Zm90.74,51.8c-3.24,1.79,1,15.66,9.51,31,5.48,10.07,11.41,18.35,15.78,22.38-5.82-.79-15.89-.12-27.19,2.12-17.23,3.47-30.66,9.18-29.87,12.76s15.21,3.58,32.44.22,30.55-9.17,29.87-12.75c3.14-1.68-1.11-15.67-9.51-31S614.67,833.62,611.54,835.41ZM638,851.18c-3,2,2.46,15.55,12.19,30.1,6.49,9.73,13.09,17.34,17.79,20.92-5.82-.33-15.89,1.23-27.08,4.48-16.78,4.92-29.64,11.75-28.64,15.21s15.44,2.35,32.34-2.57,29.64-11.75,28.64-15.22c3-2-2.46-15.55-12.2-30.09S641,849.17,638,851.18Zm27.74,13.43c-2.91,2.35,3.69,15.22,14.66,29,7.16,8.95,14.43,16,19.47,19.13-5.93.34-15.67,2.8-26.41,6.93C657.08,926,644.88,934,646.22,937.33s15.56,1,31.89-5.37,28.53-14.32,27.3-17.68c2.8-2.34-3.8-15.21-14.77-29S668.49,862.37,665.69,864.61Zm28.76,11.08c-2.69,2.46,5,14.76,17.11,27.52,8,8.17,15.67,14.54,20.93,17.34-5.93.78-15.44,4.14-25.63,9.29-15.66,7.72-27.07,16.67-25.5,19.91s15.66-.45,31.43-8.17,27.08-16.78,25.51-20c2.69-2.46-5-14.77-17.23-27.53S697,873.11,694.45,875.69ZM724,884.08c-2.35,2.68,6.38,14.32,19.58,25.84,8.73,7.72,17.23,13.43,22.71,15.55-5.7,1.23-15.1,5.48-25.06,11.41-15,9.18-25.62,19-23.72,22.16S733,957.25,748,948.18s25.62-19,23.72-22.15c2.46-2.68-6.38-14.32-19.47-25.95S726.44,881.39,724,884.08Zm419-364.18c-3.14,1.9,1.79,15.55,10.85,30.54s19,25.63,22.15,23.73c2.8,2.34,14.32-6.38,26-19.58s18.79-25.74,16-28.2-14.32,6.38-26,19.58c-7.61,8.73-13.31,17.23-15.55,22.6-1.23-5.71-5.37-15-11.3-25C1155.91,528.63,1146.07,518,1142.94,519.9Zm-3.14-30.65c-2.91,2.12,3.14,15.32,13.54,29.42s21.15,23.94,24.06,21.82c2.9,2.12,13.76-7.61,24.16-21.82s16.45-27.3,13.54-29.42-13.76,7.6-24.17,21.7c-6.82,9.29-11.74,18.13-13.53,23.72-1.79-5.59-6.72-14.43-13.54-23.72C1153.56,496.85,1142.71,487.12,1139.8,489.25ZM1134,459c-2.8,2.35,4.47,15,16,28.19s23.16,21.93,26,19.47c3,1.9,13-8.73,22.15-23.72s14-28.64,10.86-30.54-13,8.72-22.16,23.72c-5.93,9.95-10.18,19.35-11.41,25.06-2.12-5.48-7.83-14-15.55-22.71C1148.31,465.3,1136.67,456.58,1134,459Zm9.51-43.75c-13.77-11-26.63-17.56-29-14.65s7,14,20.7,24.95,26.62,17.56,29,14.76c3.36,1.35,11.3-10.85,17.68-27.18s8.73-30.77,5.37-32-11.3,10.85-17.68,27.19c-4.14,10.74-6.6,20.47-6.93,26.4C1159.49,429.73,1152.45,422.45,1143.5,415.29Zm9.51,31.33c-12.65-12.2-25-19.92-27.53-17.23s5.82,14.54,18.46,26.74,25.06,19.8,27.53,17.12c3.24,1.67,12.19-9.85,20-25.51s11.41-29.76,8.17-31.44-12.2,9.85-20,25.62c-5,10.07-8.39,19.58-9.17,25.51C1167.66,462.17,1161.28,454.45,1153,446.62Zm-21.82-61.54c-14.55-9.73-28.08-15.21-30.1-12.19s8.17,13.43,22.83,23.16S1152,411.26,1154,408.13c3.47,1,10.3-11.75,15.22-28.64s6-31.33,2.57-32.33-10.29,11.86-15.21,28.64c-3.25,11.19-4.82,21.26-4.48,27.07C1148.53,398.18,1140.92,391.57,1131.19,385.08Zm-97.67-129.33c-17.35-2.69-31.89-1.9-32.45,1.68s13.09,8.61,30.43,11.3,31.89,1.9,32.45-1.68c3.58-.56,4.25-15.1,1.68-32.45s-7.72-31-11.3-30.43-4.37,15.11-1.68,32.45c1.68,11.41,4.47,21.14,7.16,26.4C1054.55,260.22,1044.82,257.54,1033.52,255.75ZM1057.46,278c-17.12-4.14-31.66-4.7-32.45-1.12s12.2,9.74,29.32,13.88,31.55,4.7,32.44,1.12c3.58-.23,5.6-14.66,4.48-32.11s-4.93-31.55-8.62-31.33-5.59,14.66-4.47,32.11c.78,11.52,2.57,21.48,4.81,26.85C1078,284.28,1068.65,280.7,1057.46,278ZM1099,328.25c-16-7.05-30.21-10.07-31.67-6.71s10.3,11.74,26.41,18.79S1124,350.4,1125.48,347c3.58.45,8.06-13.42,10-30.76s.56-32-3-32.34-8.06,13.43-10.07,30.88c-1.23,11.41-1.12,21.48.11,27.19C1118.1,338,1109.37,332.84,1099,328.25Zm-91.19-92.64c-17.56-1.12-32,.9-32.11,4.59-.33,3.58,13.65,7.38,31.22,8.61s31.88-.89,32.11-4.58c3.58-.79,3-15.33-1.12-32.45s-10.41-30.1-13.87-29.31-3,15.44,1.11,32.44c2.69,11.19,6.38,20.7,9.51,25.62C1029.15,238.3,1019.19,236.39,1007.78,235.61ZM991.9,163.56c-3.47,1.12-1.68,15.55,3.91,32.22,3.81,11,8.28,20.14,11.86,24.73-5.59-1.79-15.77-2.91-27.41-2.58-17.34.34-31.55,3.58-31.55,7.28S963,231.47,980.6,231s31.66-3.69,31.66-7.27c3.47-1.23,1.68-15.66-3.92-32.22S995.36,162.33,991.9,163.56Zm87.37,138.62c-16.55-5.59-31-7.38-32.11-3.92s11.3,10.86,28,16.45,31,7.39,32.11,3.92c3.69,0,6.93-14.21,7.38-31.55.34-17.57-2.24-31.89-5.93-32s-6.82,14.21-7.27,31.66c-.23,11.52.78,21.59,2.57,27.19C1099.41,310.35,1090.24,306,1079.27,302.18Zm37,53.82c-15.33-8.4-29.2-12.65-31-9.52s9.28,12.65,24.72,21,29.2,12.64,31,9.51c3.58.67,9.29-12.64,12.65-29.87s3.35-31.78-.12-32.45-9.28,12.64-12.75,29.87c-2.24,11.19-3,21.26-2.24,27.08C1134.54,367.3,1126.38,361.48,1116.31,356Zm-153-172.24c-15.22-8.95-29-13.54-30.77-10.41s9,12.87,24.06,21.71,28.86,13.53,30.76,10.4S978.36,192.6,963.26,183.76Zm128,542c-3.7-.34-7.5,13.76-8.62,31.21s.9,31.89,4.48,32.11c.89,3.58,15.32,3,32.44-1.12s30.21-10.4,29.32-13.87-15.44-3-32.45,1.12c-11.08,2.68-20.47,6.26-25.51,9.39,2.24-5.48,4-15.32,4.81-26.74C1096.84,740.31,1094.83,726,1091.25,725.77Zm52.13-175.1c-3.24,1.57.45,15.66,8.17,31.33s16.78,27.18,20,25.62c2.57,2.57,14.88-5,27.52-17.23s20.92-24.06,18.46-26.63-14.88,5-27.52,17.12c-8.17,7.83-14.55,15.55-17.46,20.81-.78-5.82-4.14-15.33-9.17-25.51C1155.58,560.52,1146.74,549,1143.38,550.67ZM1009.8,817.4c-3.36-1.46-11.75,10.29-18.8,26.4s-10.07,30.32-6.71,31.77c-.45,3.58,13.42,8.06,30.88,10s31.88.67,32.33-3-13.54-8-30.88-10c-11.3-1.34-21.48-1.12-27.3.11,3.92-4.36,9.18-13.08,13.76-23.6C1010.13,833.06,1013.15,818.85,1009.8,817.4Zm23.27-20.14c-3.47-1.23-10.74,11.3-16.45,28s-7.38,31-3.91,32.22c0,3.58,14.2,6.82,31.66,7.27s31.77-2.24,31.88-5.82-14.2-6.93-31.66-7.38c-11.41-.22-21.59.78-27.19,2.57,3.7-4.7,8.06-13.76,11.75-24.72C1034.75,812.81,1036.54,798.38,1033.07,797.26Zm95.77-155.63c-3.58.67-3.69,15.21-.22,32.44s9.06,30.55,12.64,29.88c1.79,3.13,15.66-1.12,31.1-9.51s26.41-17.79,24.73-21-15.67,1.12-31.11,9.51c-10.07,5.49-18.34,11.53-22.26,15.78.78-5.82,0-15.89-2.24-27.19C1138.12,654.27,1132.42,641,1128.84,641.63ZM1054.55,775.1c-3.58-.89-9.85,12.31-14,29.32s-4.58,31.55-1.12,32.44c.23,3.58,14.66,5.6,32.11,4.48s31.56-4.92,31.33-8.62-14.65-5.59-32.11-4.47c-11.52.78-21.48,2.57-26.85,4.81,3.13-5,6.71-14.43,9.51-25.51C1057.57,790.43,1058,776,1054.55,775.1Zm81.78-163.34c-3.46,1-2.34,15.55,2.58,32.33s11.75,29.65,15.33,28.64c2,3,15.44-2.46,30.09-12.19s24.73-20,22.71-23S1191.6,640,1177,649.69c-9.51,6.37-17.12,13-20.7,17.67.22-5.82-1.45-15.89-4.7-27C1146.63,623.62,1139.8,610.75,1136.33,611.76Zm-17.56,59c-3.58.45-5,14.88-3,32.33s6.38,31.22,10,30.77c1.45,3.36,15.66.34,31.77-6.71s28-15.44,26.4-18.8-15.66-.22-31.66,6.83c-10.4,4.58-19.13,9.73-23.49,13.65,1.23-5.82,1.34-15.89.11-27.19C1126.82,684.14,1122.35,670.27,1118.77,670.72Zm-12.64,28.08c-3.58.11-6.16,14.43-5.82,31.89s3.69,31.66,7.38,31.66c1.12,3.47,15.55,1.68,32.11-3.92s29.2-13,28.09-16.44-15.67-1.68-32.23,3.91c-11,3.81-20.13,8.17-24.72,11.75,1.79-5.59,2.79-15.66,2.57-27.19C1113.06,713,1109.82,698.8,1106.13,698.8Zm35.13-117.48c-3.47,1.35-1,15.67,5.37,32s14.32,28.53,17.68,27.19c2.23,2.91,15.21-3.69,29-14.66s22.94-22.15,20.59-25.06-15.22,3.81-28.87,14.77c-9,7.16-16,14.43-19.13,19.36-.33-5.82-2.8-15.55-6.93-26.41C1152.56,592.18,1144.61,580,1141.26,581.32ZM1073.9,751.16c-3.58-.45-8.61,13.09-11.3,30.43s-1.9,31.89,1.8,32.45c.44,3.58,15,4.36,32.33,1.68s31-7.72,30.43-11.3-15.1-4.37-32.45-1.68c-11.41,1.79-21.14,4.59-26.29,7.27,2.69-5.26,5.48-15,7.16-26.4C1078.27,766.27,1077.49,751.72,1073.9,751.16Zm-110.09,109c-8.39,15.33-12.64,29.32-9.51,31-.67,3.58,12.76,9.28,29.88,12.75s31.77,3.25,32.44-.22-12.64-9.29-29.87-12.76c-11.3-2.24-21.37-2.91-27.19-2.12,4.36-4,10.29-12.31,15.78-22.38,8.5-15.33,12.75-29.2,9.51-31S972.2,844.69,963.81,860.13ZM935.4,874c-9.74,14.54-15.22,28.08-12.2,30.09-1,3.47,11.86,10.3,28.64,15.22s31.33,6.15,32.34,2.57-11.86-10.29-28.65-15.21c-11.18-3.25-21.25-4.81-27.07-4.48,4.7-3.58,11.3-11.19,17.79-20.92,9.73-14.55,15.21-28.08,12.19-30.1S945.13,859.46,935.4,874Zm-29.65,11.3c-11,13.76-17.57,26.63-14.77,29-1.23,3.36,10.85,11.3,27.3,17.68s30.65,8.84,31.88,5.37S939.31,926,923,919.65c-10.74-4.13-20.48-6.59-26.41-6.93,5-3.13,12.31-10.18,19.47-19.13,11-13.76,17.57-26.63,14.66-29S916.71,871.66,905.75,885.31ZM875.31,894c-12.19,12.76-19.91,25.07-17.22,27.53-1.57,3.24,9.84,12.19,25.5,20S913.47,953,915,949.75s-9.84-12.19-25.51-19.91c-10.18-5.15-19.69-8.51-25.62-9.29,5.26-2.8,13-9.17,20.92-17.34,12.09-12.75,19.81-25.06,17.12-27.52S887.4,881.39,875.31,894Zm-31.21,6.05C831,911.71,822.17,923.35,824.63,926c-1.9,3.14,8.73,13,23.72,22.16s28.64,14,30.54,10.85-8.72-13-23.71-22.16c-10-5.93-19.36-10.18-25.07-11.41,5.49-2.12,14-7.83,22.72-15.55,13.2-11.52,21.93-23.16,19.58-25.84S857.3,888.55,844.1,900.08Z" transform="translate(-377.89 -163.48)"/><rect class="ac80702b-e07f-4aa6-8b06-a579a3991300" x="377.52" y="213.71" width="79.73" height="79.73" rx="8.78"/><path class="ac80702b-e07f-4aa6-8b06-a579a3991300" d="M744.71,316.28V291.1a4.16,4.16,0,0,0-4.17-4.17H669.15A4.17,4.17,0,0,0,665,291.1v71.39a4.17,4.17,0,0,0,4.17,4.17h25.18A50.38,50.38,0,0,0,744.71,316.28Z" transform="translate(-377.89 -163.48)"/><path class="ac80702b-e07f-4aa6-8b06-a579a3991300" d="M744.71,429.59V404.41a27.23,27.23,0,0,0-27.23-27.23H667.25a2.27,2.27,0,0,0-2.27,2.27v75.2a2.27,2.27,0,0,0,2.27,2.27h50.14A27.33,27.33,0,0,0,744.71,429.59Z" transform="translate(-377.89 -163.48)"/><path class="ac80702b-e07f-4aa6-8b06-a579a3991300" d="M654.27,452.77V342.56a4.15,4.15,0,0,0-4.15-4.15H578.69a4.15,4.15,0,0,0-4.15,4.15v63.95a50.41,50.41,0,0,0,50.4,50.41h25.18A4.15,4.15,0,0,0,654.27,452.77Z" transform="translate(-377.89 -163.48)"/><path class="ac80702b-e07f-4aa6-8b06-a579a3991300" d="M831,248.16H805.82a50.39,50.39,0,0,0-50.4,50.4v63.95a4.15,4.15,0,0,0,4.15,4.15H831a4.15,4.15,0,0,0,4.15-4.15V252.3A4.14,4.14,0,0,0,831,248.16Z" transform="translate(-377.89 -163.48)"/><path class="ac80702b-e07f-4aa6-8b06-a579a3991300" d="M875.21,395.71a8.38,8.38,0,0,0-3.89-3,7.55,7.55,0,0,0,2.93-2.79,7.68,7.68,0,0,0,1.09-4.05,8.23,8.23,0,0,0-8.22-8.22H854.66v31.28h13.49a8.57,8.57,0,0,0,8.54-8.54A7.86,7.86,0,0,0,875.21,395.71ZM857,379.89h10.09a5.58,5.58,0,0,1,4.14,1.77,6,6,0,0,1,0,8.44,5.58,5.58,0,0,1-4.14,1.77H857Zm15.48,25a5.9,5.9,0,0,1-4.36,1.85H857V394.1h11.12a5.87,5.87,0,0,1,4.36,1.86,6.36,6.36,0,0,1,0,8.89Z" transform="translate(-377.89 -163.48)"/><path class="ac80702b-e07f-4aa6-8b06-a579a3991300" d="M898.58,398.39q0,4.33-2.19,6.61a7.47,7.47,0,0,1-5.63,2.28,6.35,6.35,0,0,1-4.85-1.83,7,7,0,0,1-1.72-5v-13.9h-2.28v13.9a9,9,0,0,0,2.35,6.5,9.25,9.25,0,0,0,14.32-2.3v4.24h2.23V386.59h-2.23Z" transform="translate(-377.89 -163.48)"/><path class="ac80702b-e07f-4aa6-8b06-a579a3991300" d="M910.75,389.39a6.28,6.28,0,0,1,3.83-1.14,7,7,0,0,1,3.48.87,4.9,4.9,0,0,1,2.23,2.52l1.88-1.07a7.21,7.21,0,0,0-2.93-3.26,8.75,8.75,0,0,0-4.66-1.21,8.1,8.1,0,0,0-5.48,1.83,5.77,5.77,0,0,0-2.12,4.52,4.74,4.74,0,0,0,1.38,3.57,8,8,0,0,0,3.38,1.92c1.32.39,2.66.74,4,1.05a9.55,9.55,0,0,1,3.39,1.45,3.08,3.08,0,0,1,1.39,2.64,3.55,3.55,0,0,1-1.63,3.11,7.29,7.29,0,0,1-4.14,1.09,8,8,0,0,1-4.22-1,5.26,5.26,0,0,1-2.34-2.88l-1.93,1.11a7.14,7.14,0,0,0,3.07,3.6,10.12,10.12,0,0,0,5.42,1.36,8.92,8.92,0,0,0,5.79-1.78,5.62,5.62,0,0,0,2.21-4.56,4.88,4.88,0,0,0-1.38-3.64A7.81,7.81,0,0,0,918,397.5c-1.32-.39-2.66-.74-4-1.05A10.3,10.3,0,0,1,910.6,395a3,3,0,0,1-1.39-2.59A3.63,3.63,0,0,1,910.75,389.39Z" transform="translate(-377.89 -163.48)"/><path class="ac80702b-e07f-4aa6-8b06-a579a3991300" d="M930.84,379.4a1.63,1.63,0,0,0-.54-1.23,1.79,1.79,0,0,0-2.5,0,1.63,1.63,0,0,0-.54,1.23,1.67,1.67,0,0,0,.54,1.27,1.76,1.76,0,0,0,2.5,0A1.67,1.67,0,0,0,930.84,379.4Z" transform="translate(-377.89 -163.48)"/><rect class="ac80702b-e07f-4aa6-8b06-a579a3991300" x="550.04" y="223.12" width="2.23" height="22.34"/><path class="ac80702b-e07f-4aa6-8b06-a579a3991300" d="M939.28,390.84v-4.25h-2.23v22.34h2.23V397.14c0-2.89.73-5.1,2.19-6.61a7.47,7.47,0,0,1,5.63-2.28,6.33,6.33,0,0,1,4.85,1.83,7,7,0,0,1,1.72,5v13.89H956V395a9,9,0,0,0-2.35-6.5,9.23,9.23,0,0,0-14.32,2.3Z" transform="translate(-377.89 -163.48)"/><path class="ac80702b-e07f-4aa6-8b06-a579a3991300" d="M980.27,389.59a10.12,10.12,0,0,0-8-3.48,11.16,11.16,0,0,0-8.34,3.32,11.48,11.48,0,0,0-3.24,8.34,11.32,11.32,0,0,0,3.31,8.37,11.48,11.48,0,0,0,8.45,3.29,12.17,12.17,0,0,0,5.8-1.36,10,10,0,0,0,3.94-3.69l-2-1.16a7.72,7.72,0,0,1-3,2.95,9.54,9.54,0,0,1-4.69,1.11,9.42,9.42,0,0,1-6.46-2.3,9,9,0,0,1-3-6.05h20.24c0-.12,0-.3,0-.54s0-.42,0-.53A12.12,12.12,0,0,0,980.27,389.59Zm-17.22,7.15a9.24,9.24,0,0,1,2.9-6.12,9,9,0,0,1,6.35-2.37,8.4,8.4,0,0,1,5.87,2.26,9.19,9.19,0,0,1,2.84,6.23Z" transform="translate(-377.89 -163.48)"/><path class="ac80702b-e07f-4aa6-8b06-a579a3991300" d="M990.73,389.39a6.25,6.25,0,0,1,3.82-1.14,7.09,7.09,0,0,1,3.49.87,5,5,0,0,1,2.23,2.52l1.88-1.07a7.33,7.33,0,0,0-2.93-3.26,8.78,8.78,0,0,0-4.67-1.21,8.07,8.07,0,0,0-5.47,1.83,5.74,5.74,0,0,0-2.12,4.52,4.74,4.74,0,0,0,1.38,3.57,7.94,7.94,0,0,0,3.37,1.92c1.33.39,2.66.74,4,1.05a9.68,9.68,0,0,1,3.4,1.45,3.09,3.09,0,0,1,1.38,2.64,3.53,3.53,0,0,1-1.63,3.11,7.25,7.25,0,0,1-4.13,1.09,7.93,7.93,0,0,1-4.22-1,5.32,5.32,0,0,1-2.35-2.88l-1.92,1.11a7.17,7.17,0,0,0,3.06,3.6,10.15,10.15,0,0,0,5.43,1.36,9,9,0,0,0,5.79-1.78,5.62,5.62,0,0,0,2.21-4.56,4.85,4.85,0,0,0-1.39-3.64A7.77,7.77,0,0,0,998,397.5c-1.33-.39-2.66-.74-4-1.05a10.45,10.45,0,0,1-3.4-1.41,3,3,0,0,1-1.38-2.59A3.61,3.61,0,0,1,990.73,389.39Z" transform="translate(-377.89 -163.48)"/><path class="ac80702b-e07f-4aa6-8b06-a579a3991300" d="M1009.85,389.39a6.25,6.25,0,0,1,3.82-1.14,7.09,7.09,0,0,1,3.49.87,5,5,0,0,1,2.23,2.52l1.88-1.07a7.27,7.27,0,0,0-2.93-3.26,8.78,8.78,0,0,0-4.67-1.21,8.07,8.07,0,0,0-5.47,1.83,5.74,5.74,0,0,0-2.12,4.52,4.74,4.74,0,0,0,1.38,3.57,7.94,7.94,0,0,0,3.37,1.92c1.33.39,2.66.74,4,1.05a9.6,9.6,0,0,1,3.4,1.45,3.09,3.09,0,0,1,1.38,2.64,3.53,3.53,0,0,1-1.63,3.11,7.23,7.23,0,0,1-4.13,1.09,7.93,7.93,0,0,1-4.22-1,5.32,5.32,0,0,1-2.35-2.88l-1.92,1.11a7.17,7.17,0,0,0,3.06,3.6,10.18,10.18,0,0,0,5.43,1.36,9,9,0,0,0,5.79-1.78,5.62,5.62,0,0,0,2.21-4.56,4.85,4.85,0,0,0-1.39-3.64,7.77,7.77,0,0,0-3.37-1.94c-1.33-.39-2.66-.74-4-1.05a10.45,10.45,0,0,1-3.4-1.41,3,3,0,0,1-1.38-2.59A3.61,3.61,0,0,1,1009.85,389.39Z" transform="translate(-377.89 -163.48)"/><path class="ac80702b-e07f-4aa6-8b06-a579a3991300" d="M869.49,425.35h-7.64l-10.94,31.28h6.65l1.88-5.63h12.47l1.87,5.63h6.7Zm-8.08,19.88,4.28-12.77L870,445.23Z" transform="translate(-377.89 -163.48)"/><polygon class="ac80702b-e07f-4aa6-8b06-a579a3991300" points="525.83 284.57 521.76 270.81 516.31 270.81 512.25 284.52 508.45 270.81 502.33 270.81 509.43 293.15 514.93 293.15 519.04 279.61 523.15 293.15 528.64 293.15 535.75 270.81 529.63 270.81 525.83 284.57"/><path class="ac80702b-e07f-4aa6-8b06-a579a3991300" d="M932.85,434.29v2.63a8.8,8.8,0,0,0-7.29-3.26,10.13,10.13,0,0,0-7.66,3.42,12.59,12.59,0,0,0,0,16.75,10.13,10.13,0,0,0,7.66,3.42,8.8,8.8,0,0,0,7.29-3.26v2.64h5.76V434.29ZM931.08,450a6.44,6.44,0,0,1-8.87,0,6.78,6.78,0,0,1,0-9.07,6.47,6.47,0,0,1,8.87,0,6.69,6.69,0,0,1,0,9.07Z" transform="translate(-377.89 -163.48)"/><path class="ac80702b-e07f-4aa6-8b06-a579a3991300" d="M949.61,434.28h-5.77v22.34h5.77V446a5.14,5.14,0,0,1,2.07-4.61,6.82,6.82,0,0,1,4.72-1.07v-6.43a8.19,8.19,0,0,0-4.14,1.07,6,6,0,0,0-2.65,3.22Z" transform="translate(-377.89 -163.48)"/><path class="ac80702b-e07f-4aa6-8b06-a579a3991300" d="M975.83,425.35v11.57a8.66,8.66,0,0,0-7.24-3.26,10.14,10.14,0,0,0-7.7,3.42,12.56,12.56,0,0,0,0,16.75,10.14,10.14,0,0,0,7.7,3.42,8.66,8.66,0,0,0,7.24-3.26v2.64h5.76V425.35ZM974.09,450a6.44,6.44,0,0,1-8.87,0,6.69,6.69,0,0,1,0-9.07,6.47,6.47,0,0,1,8.87,0,6.78,6.78,0,0,1,0,9.07Z" transform="translate(-377.89 -163.48)"/><path class="ac80702b-e07f-4aa6-8b06-a579a3991300" d="M874,358.72a13.06,13.06,0,0,1-16.63,0,10.5,10.5,0,0,1-3.13-8V330h2.37v20.81a8.52,8.52,0,0,0,2.37,6.3,9,9,0,0,0,6.7,2.36,9.15,9.15,0,0,0,6.72-2.36,8.49,8.49,0,0,0,2.39-6.3V330h2.36v20.81A10.44,10.44,0,0,1,874,358.72Z" transform="translate(-377.89 -163.48)"/><path class="ac80702b-e07f-4aa6-8b06-a579a3991300" d="M901.1,361.22h-3l-11.84-11v11H884V330h2.23V349l11.3-10.14h3.13l-12,10.72Z" transform="translate(-377.89 -163.48)"/><path class="ac80702b-e07f-4aa6-8b06-a579a3991300" d="M907.8,343.27q2-4.69,7.46-4.69v2.14a7.44,7.44,0,0,0-5.31,2q-2.15,2-2.15,6.06v12.41h-2.23V338.89h2.23Z" transform="translate(-377.89 -163.48)"/><path class="ac80702b-e07f-4aa6-8b06-a579a3991300" d="M938.08,338.89h2.28v22.33h-2.28v-5.05a10.46,10.46,0,0,1-3.93,4.07,11,11,0,0,1-5.67,1.47,11.66,11.66,0,0,1,0-23.31,11,11,0,0,1,5.67,1.47,10.53,10.53,0,0,1,3.93,4.07ZM921.94,356.8a9.51,9.51,0,0,0,13.42,0,9.72,9.72,0,0,0,0-13.49,9.51,9.51,0,0,0-13.42,0,9.65,9.65,0,0,0,0,13.49Z" transform="translate(-377.89 -163.48)"/><path class="ac80702b-e07f-4aa6-8b06-a579a3991300" d="M949.6,333a1.76,1.76,0,0,1-2.5,0,1.72,1.72,0,0,1,0-2.5,1.79,1.79,0,0,1,2.5,0,1.72,1.72,0,0,1,0,2.5Zm-2.37,28.25V338.89h2.24v22.33Z" transform="translate(-377.89 -163.48)"/><path class="ac80702b-e07f-4aa6-8b06-a579a3991300" d="M966.57,338.4a8.37,8.37,0,0,1,6.32,2.43,9,9,0,0,1,2.34,6.5v13.89H973V347.33a7,7,0,0,0-1.72-5,6.33,6.33,0,0,0-4.85-1.83,7.43,7.43,0,0,0-5.62,2.28q-2.19,2.28-2.19,6.61v11.79h-2.24V338.89h2.24v4.24A8.29,8.29,0,0,1,966.57,338.4Z" transform="translate(-377.89 -163.48)"/><path class="ac80702b-e07f-4aa6-8b06-a579a3991300" d="M983.9,333a1.74,1.74,0,0,1-1.25.52,1.71,1.71,0,0,1-1.25-.52,1.72,1.72,0,0,1,0-2.5,1.74,1.74,0,0,1,1.25-.51,1.77,1.77,0,0,1,1.25.51,1.74,1.74,0,0,1,0,2.5Zm-2.37,28.25V338.89h2.23v22.33Z" transform="translate(-377.89 -163.48)"/><path class="ac80702b-e07f-4aa6-8b06-a579a3991300" d="M1010.29,338.89h2.28v22.33h-2.28v-5.05a10.46,10.46,0,0,1-3.93,4.07,11,11,0,0,1-5.67,1.47,11.66,11.66,0,0,1,0-23.31,11,11,0,0,1,5.67,1.47,10.53,10.53,0,0,1,3.93,4.07ZM994.15,356.8a9.51,9.51,0,0,0,13.42,0,9.72,9.72,0,0,0,0-13.49,9.51,9.51,0,0,0-13.42,0,9.65,9.65,0,0,0,0,13.49Z" transform="translate(-377.89 -163.48)"/><path class="ac80702b-e07f-4aa6-8b06-a579a3991300" d="M1029.67,338.4a8.37,8.37,0,0,1,6.32,2.43,9,9,0,0,1,2.35,6.5v13.89h-2.28V347.33a7,7,0,0,0-1.72-5,6.33,6.33,0,0,0-4.85-1.83,7.44,7.44,0,0,0-5.62,2.28q-2.19,2.28-2.19,6.61v11.79h-2.24V338.89h2.24v4.24A8.3,8.3,0,0,1,1029.67,338.4Z" transform="translate(-377.89 -163.48)"/><path class="ac80702b-e07f-4aa6-8b06-a579a3991300" d="M626.9,796.3V774.8l38.37-40.53a97.28,97.28,0,0,0,8.44-10.17,13.65,13.65,0,0,0,2.65-7.69,9.25,9.25,0,0,0-2.73-6.95,10.38,10.38,0,0,0-7.53-2.64q-10.26,0-15.55,12.07l-25.47-14.22q5.63-13.06,16.54-19.85A44.88,44.88,0,0,1,665.77,678q16.54,0,28.37,9.84T706,714.76a37.78,37.78,0,0,1-4.71,18.6,87.9,87.9,0,0,1-13.81,17.95l-15.72,16.37H708V796.3Z" transform="translate(-377.89 -163.48)"/><path class="ac80702b-e07f-4aa6-8b06-a579a3991300" d="M798.67,782.32Q786,798.79,763.35,798.78T728,782.32q-12.64-16.46-12.65-43.91T728,694.49Q740.7,678,763.35,678t35.32,16.45q12.65,16.47,12.65,43.92T798.67,782.32ZM745,738.41Q745,770,763.35,770t18.36-31.59q0-31.59-18.36-31.59T745,738.41Z" transform="translate(-377.89 -163.48)"/><path class="ac80702b-e07f-4aa6-8b06-a579a3991300" d="M816.45,796.3V774.8l38.37-40.53a97.28,97.28,0,0,0,8.44-10.17,13.64,13.64,0,0,0,2.64-7.69,9.25,9.25,0,0,0-2.73-6.95,10.37,10.37,0,0,0-7.52-2.64q-10.26,0-15.55,12.07l-25.47-14.22q5.63-13.06,16.54-19.85A44.85,44.85,0,0,1,855.32,678q16.53,0,28.36,9.84t11.83,26.88a37.78,37.78,0,0,1-4.71,18.6A88,88,0,0,1,877,751.31l-15.71,16.37h36.22V796.3Z" transform="translate(-377.89 -163.48)"/><path class="ac80702b-e07f-4aa6-8b06-a579a3991300" d="M905.6,796.3V774.8L944,734.27a95.67,95.67,0,0,0,8.43-10.17,13.58,13.58,0,0,0,2.65-7.69,9.25,9.25,0,0,0-2.73-6.95,10.37,10.37,0,0,0-7.52-2.64q-10.26,0-15.55,12.07l-25.47-14.22q5.61-13.06,16.54-19.85A44.83,44.83,0,0,1,944.47,678q16.53,0,28.36,9.84t11.83,26.88a37.68,37.68,0,0,1-4.72,18.6,87.54,87.54,0,0,1-13.81,17.95l-15.71,16.37h36.22V796.3Z" transform="translate(-377.89 -163.48)"/></svg>